Description

Sinopse e detalhes

Após a captura de Merry (Dominic Monaghan) e Pippy (Billy Boyd) pelos orcs, a Sociedade do Anel é dissolvida. Enquanto que Frodo (Elijah Wood) e Sam (Sean Astin) seguem sua jornada rumo à Montanha da Perdição para destruir o Um Anel, Aragorn (Viggo Mortensen), Legolas (Orlando Bloom) e Gimli (John Rhys-Davies) partem para resgatar os hobbits sequestrados.


Format : Matroska
Format version : Version 2
File size : 1.82 GiB
Duration : 2h 59mn
Overall bit rate : 1 454 Kbps
Encoded date : UTC 2013-05-04 09:40:24
Writing application : mkvmerge v5.8.0 ('No Sleep / Pillow') built on Sep 2 2012 15:37:04
Writing library : libebml v1.2.3 + libmatroska v1.3.0

Video
ID : 1
Format : AVC
Format/Info : Advanced Video Codec
Format profile : High@L4.1
Format settings, CABAC : Yes
Format settings, ReFrames : 4 frames
Muxing mode : Header stripping
Codec ID : V_MPEG4/ISO/AVC
Duration : 2h 59mn
Bit rate : 593 Kbps
Width : 720 pixels
Height : 288 pixels
Display aspect ratio : 2.500
Frame rate mode : Constant
Frame rate : 23.976 fps
Color space : YUV
Chroma subsampling : 4:2:0
Bit depth : 8 bits
Scan type : Progressive
Bits/(Pixel*Frame) : 0.119
Stream size : 760 MiB (41%)
Title : O Senhor dos Aneis - As Duas Torres ( by fantasma )
Writing library : x264 core 130 r2273 b3065e6
Encoding settings : cabac=1 / ref=3 / deblock=1:0:0 / analyse=0x3:0x113 / me=hex / subme=7 / psy=1 / psy_rd=1.00:0.00 / mixed_ref=1 / me_range=16 / chroma_me=1 / trellis=1 / 8x8dct=1 / cqm=0 / deadzone=21,11 / fast_pskip=1 / chroma_qp_offset=-2 / threads=3 / lookahead_threads=1 / sliced_threads=0 / nr=0 / decimate=1 / interlaced=0 / bluray_compat=0 / constrained_intra=0 / bframes=3 / b_pyramid=2 / b_adapt=1 / b_bias=0 / direct=1 / weightb=1 / open_gop=0 / weightp=2 / keyint=240 / keyint_min=23 / scenecut=40 / intra_refresh=0 / rc_lookahead=40 / rc=crf / mbtree=1 / crf=23.0 / qcomp=0.60 / qpmin=0 / qpmax=69 / qpstep=4 / vbv_maxrate=62500 / vbv_bufsize=78125 / crf_max=0.0 / nal_hrd=none / ip_ratio=1.40 / aq=1:1.00
Language : Portuguese
Default : Yes
Forced : No

Audio #1
ID : 2
Format : AC-3
Format/Info : Audio Coding 3
Format profile : Dolby Digital
Mode extension : CM (complete main)
Format settings, Endianness : Big
Muxing mode : Header stripping
Codec ID : A_AC3
Duration : 2h 59mn
Bit rate mode : Constant
Bit rate : 192 Kbps
Channel(s) : 2 channels
Channel positions : Front: L R
Sampling rate : 48.0 KHz
Bit depth : 16 bits
Compression mode : Lossy
Stream size : 246 MiB (13%)
Title : by fantasma
Language : Portuguese
Default : Yes
Forced : No

Audio #2
ID : 3
Format : AC-3
Format/Info : Audio Coding 3
Mode extension : CM (complete main)
Format settings, Endianness : Big
Muxing mode : Header stripping
Codec ID : A_AC3
Duration : 2h 59mn
Bit rate mode : Constant
Bit rate : 448 Kbps
Channel(s) : 6 channels
Channel positions : Front: L C R, Side: L R, LFE
Sampling rate : 48.0 KHz
Bit depth : 16 bits
Compression mode : Lossy
Stream size : 575 MiB (31%)
Title : by fantasma
Language : English
Default : No
Forced : No

Audio #3
ID : 4
Format : AC-3
Format/Info : Audio Coding 3
Format profile : Dolby Digital
Mode extension : CM (complete main)
Format settings, Endianness : Big
Muxing mode : Header stripping
Codec ID : A_AC3
Duration : 2h 59mn
Bit rate mode : Constant
Bit rate : 192 Kbps
Channel(s) : 2 channels
Channel positions : Front: L R
Sampling rate : 48.0 KHz
Bit depth : 16 bits
Compression mode : Lossy
Stream size : 246 MiB (13%)
Title : by fantasma
Language : Spanish
Default : No
Forced : No

Text #1
ID : 5
Format : VobSub
Muxing mode : zlib
Codec ID : S_VOBSUB
Codec ID/Info : The same subtitle format used on DVDs
Title : Spanish - (Caption/Normal Size Char)
Language : Spanish
Default : No
Forced : No

Text #2
ID : 6
Format : VobSub
Muxing mode : zlib
Codec ID : S_VOBSUB
Codec ID/Info : The same subtitle format used on DVDs
Title : English - (Caption/Normal Size Char)
Language : English
Default : No
Forced : No

Text #3
ID : 7
Format : VobSub
Muxing mode : zlib
Codec ID : S_VOBSUB
Codec ID/Info : The same subtitle format used on DVDs
Title : Portuguese - (Caption/Normal Size Char)
Language : Portuguese
Default : No
Forced : No

Text #4
ID : 8
Format : UTF-8
Codec ID : S_TEXT/UTF8
Codec ID/Info : UTF-8 Plain Text
Title : Credito
Language : Portuguese
Default : Yes
Forced : No

Menu
00:00:00.000 : en:Chapter 01
00:04:06.534 : en:Chapter 02
00:11:29.534 : en:Chapter 03
00:12:15.034 : en:Chapter 04
00:14:24.534 : en:Chapter 05
00:17:27.534 : en:Chapter 06
00:20:15.534 : en:Chapter 07
00:21:09.534 : en:Chapter 08
00:24:08.034 : en:Chapter 09
00:28:15.034 : en:Chapter 10
00:30:47.034 : en:Chapter 11
00:34:16.034 : en:Chapter 12
00:41:14.534 : en:Chapter 13
00:46:50.534 : en:Chapter 14
00:47:31.034 : en:Chapter 15
00:52:48.034 : en:Chapter 16
01:04:16.034 : en:Chapter 17
01:06:08.534 : en:Chapter 18
01:09:19.034 : en:Chapter 19
01:10:45.034 : en:Chapter 20
01:11:49.534 : en:Chapter 21
01:13:32.534 : en:Chapter 22
01:16:02.034 : en:Chapter 23
01:20:29.534 : en:Chapter 24
01:21:25.534 : en:Chapter 25
01:25:54.534 : en:Chapter 26
01:32:32.068 : en:Chapter 27
01:34:58.068 : en:Chapter 28
01:37:34.568 : en:Chapter 29
01:39:14.068 : en:Chapter 30
01:42:54.835 : en:Chapter 31
01:45:20.335 : en:Chapter 32
01:48:16.335 : en:Chapter 33
01:55:35.835 : en:Chapter 34
02:01:08.835 : en:Chapter 35
02:02:28.835 : en:Chapter 36
02:04:26.835 : en:Chapter 37
02:06:11.335 : en:Chapter 38
02:09:43.835 : en:Chapter 39
02:15:59.335 : en:Chapter 40
02:17:38.335 : en:Chapter 41
02:21:03.335 : en:Chapter 42
02:22:48.835 : en:Chapter 43
02:28:44.835 : en:Chapter 44
02:30:09.335 : en:Chapter 45
02:30:44.335 : en:Chapter 46
02:33:00.335 : en:Chapter 47
02:35:32.335 : en:Chapter 48
02:40:10.335 : en:Chapter 49
02:42:38.335 : en:Chapter 50
02:47:24.335 : en:Chapter 51
02:49:03.835 : en:Chapter 52
02:51:29.335 : en:Chapter 53
02:59:11.203 : en:Chapter 54